<svg width="117" height="40" viewBox="0 0 117 40" fill="none" xmlns="http://www.w3.org/2000/svg">
<path fill-rule="evenodd" clip-rule="evenodd" d="M7.5 10C7.5 8.61929 8.61929 7.5 10 7.5H13.75C15.1307 7.5 16.25 8.61929 16.25 10V30C16.25 31.3807 15.1307 32.5 13.75 32.5H10C8.61929 32.5 7.5 31.3807 7.5 30V10ZM13.75 10H10V30H13.75V10Z" fill="#00B37E"/>
<path fill-rule="evenodd" clip-rule="evenodd" d="M23.75 10C23.75 8.61929 24.8693 7.5 26.25 7.5H30C31.3807 7.5 32.5 8.61929 32.5 10V30C32.5 31.3807 31.3807 32.5 30 32.5H26.25C24.8693 32.5 23.75 31.3807 23.75 30V10ZM30 10H26.25V30H30V10Z" fill="#00B37E"/>
<path fill-rule="evenodd" clip-rule="evenodd" d="M30 12.5C30 11.8096 30.5596 11.25 31.25 11.25H35C35.663 11.25 36.2989 11.5134 36.7678 11.9822C37.2366 12.4511 37.5 13.087 37.5 13.75V26.25C37.5 26.913 37.2366 27.5489 36.7678 28.0178C36.2989 28.4866 35.663 28.75 35 28.75H31.25C30.5596 28.75 30 28.1904 30 27.5C30 26.8096 30.5596 26.25 31.25 26.25H35L35 13.75L31.25 13.75C30.5596 13.75 30 13.1904 30 12.5Z" fill="#00B37E"/>
<path fill-rule="evenodd" clip-rule="evenodd" d="M3.23223 11.9822C3.70107 11.5134 4.33696 11.25 5 11.25H8.75C9.44036 11.25 10 11.8096 10 12.5C10 13.1904 9.44036 13.75 8.75 13.75L5 13.75V26.25H8.75C9.44036 26.25 10 26.8096 10 27.5C10 28.1904 9.44036 28.75 8.75 28.75H5C4.33696 28.75 3.70108 28.4866 3.23223 28.0178C2.76339 27.5489 2.5 26.913 2.5 26.25V13.75C2.5 13.087 2.76339 12.4511 3.23223 11.9822Z" fill="#00B37E"/>
<path fill-rule="evenodd" clip-rule="evenodd" d="M13.75 20C13.75 19.3096 14.3096 18.75 15 18.75H25C25.6904 18.75 26.25 19.3096 26.25 20C26.25 20.6904 25.6904 21.25 25 21.25H15C14.3096 21.25 13.75 20.6904 13.75 20Z" fill="#00B37E"/>
<path fill-rule="evenodd" clip-rule="evenodd" d="M35 20C35 19.3096 35.5596 18.75 36.25 18.75H38.75C39.4404 18.75 40 19.3096 40 20C40 20.6904 39.4404 21.25 38.75 21.25H36.25C35.5596 21.25 35 20.6904 35 20Z" fill="#00B37E"/>
<path fill-rule="evenodd" clip-rule="evenodd" d="M0 20C0 19.3096 0.559644 18.75 1.25 18.75H3.75C4.44036 18.75 5 19.3096 5 20C5 20.6904 4.44036 21.25 3.75 21.25H1.25C0.559644 21.25 0 20.6904 0 20Z" fill="#00B37E"/>
<path d="M76.8164 19.0957V26.9844C76.5065 27.3581 76.028 27.7637 75.3809 28.2012C74.7337 28.6296 73.8997 28.9987 72.8789 29.3086C71.8581 29.6185 70.623 29.7734 69.1738 29.7734C67.8887 29.7734 66.7174 29.5638 65.6602 29.1445C64.6029 28.7161 63.6914 28.0918 62.9258 27.2715C62.1693 26.4512 61.5859 25.4486 61.1758 24.2637C60.7656 23.0697 60.5605 21.707 60.5605 20.1758V18.9316C60.5605 17.4004 60.7565 16.0378 61.1484 14.8438C61.5495 13.6497 62.1191 12.6426 62.8574 11.8223C63.5957 11.002 64.4753 10.3776 65.4961 9.94922C66.5169 9.52083 67.6517 9.30664 68.9004 9.30664C70.6322 9.30664 72.054 9.58919 73.166 10.1543C74.278 10.7103 75.1257 11.485 75.709 12.4785C76.3014 13.4629 76.666 14.5931 76.8027 15.8691H72.8242C72.724 15.1947 72.5326 14.6068 72.25 14.1055C71.9674 13.6042 71.5618 13.2122 71.0332 12.9297C70.5137 12.6471 69.8392 12.5059 69.0098 12.5059C68.3262 12.5059 67.7155 12.6471 67.1777 12.9297C66.6491 13.2031 66.2025 13.6087 65.8379 14.1465C65.4733 14.6842 65.1953 15.3496 65.0039 16.1426C64.8125 16.9355 64.7168 17.8561 64.7168 18.9043V20.1758C64.7168 21.2148 64.8171 22.1354 65.0176 22.9375C65.2181 23.7305 65.5143 24.4004 65.9062 24.9473C66.3073 25.485 66.7995 25.8906 67.3828 26.1641C67.9661 26.4375 68.6452 26.5742 69.4199 26.5742C70.0671 26.5742 70.6048 26.5195 71.0332 26.4102C71.4707 26.3008 71.8216 26.1686 72.0859 26.0137C72.3594 25.8496 72.569 25.6947 72.7148 25.5488V22.0215H68.9688V19.0957H76.8164ZM84.2676 27.832L88.1914 14.707H92.416L86.4688 31.7285C86.3411 32.1022 86.168 32.5033 85.9492 32.9316C85.7396 33.36 85.4525 33.7656 85.0879 34.1484C84.7324 34.5404 84.2812 34.8594 83.7344 35.1055C83.1966 35.3516 82.5358 35.4746 81.752 35.4746C81.3783 35.4746 81.0729 35.4518 80.8359 35.4062C80.599 35.3607 80.3164 35.2969 79.9883 35.2148V32.3301C80.0885 32.3301 80.1934 32.3301 80.3027 32.3301C80.4121 32.3392 80.5169 32.3438 80.6172 32.3438C81.1367 32.3438 81.5605 32.2845 81.8887 32.166C82.2168 32.0475 82.4811 31.8652 82.6816 31.6191C82.8822 31.3822 83.0417 31.0723 83.1602 30.6895L84.2676 27.832ZM82.627 14.707L85.8398 25.4258L86.4004 29.5957L83.7207 29.8828L78.4023 14.707H82.627ZM97.9258 17.7695V29.5H93.9746V14.707H97.6797L97.9258 17.7695ZM97.3789 21.584H96.2852C96.2852 20.554 96.4082 19.6061 96.6543 18.7402C96.9095 17.8652 97.2786 17.1087 97.7617 16.4707C98.2539 15.8236 98.86 15.3223 99.5801 14.9668C100.3 14.6113 101.134 14.4336 102.082 14.4336C102.738 14.4336 103.34 14.5339 103.887 14.7344C104.434 14.9258 104.903 15.2311 105.295 15.6504C105.696 16.0605 106.006 16.5983 106.225 17.2637C106.443 17.9199 106.553 18.7083 106.553 19.6289V29.5H102.615V20.0664C102.615 19.3919 102.524 18.8724 102.342 18.5078C102.16 18.1432 101.9 17.888 101.562 17.7422C101.234 17.5964 100.838 17.5234 100.373 17.5234C99.8626 17.5234 99.416 17.6283 99.0332 17.8379C98.6595 18.0475 98.3496 18.3392 98.1035 18.7129C97.8574 19.0775 97.6751 19.5059 97.5566 19.998C97.4382 20.4902 97.3789 21.0189 97.3789 21.584ZM106.184 21.1328L104.775 21.3105C104.775 20.3444 104.894 19.4466 105.131 18.6172C105.377 17.7878 105.737 17.0586 106.211 16.4297C106.694 15.8008 107.291 15.3132 108.002 14.9668C108.713 14.6113 109.533 14.4336 110.463 14.4336C111.174 14.4336 111.821 14.5384 112.404 14.748C112.988 14.9486 113.484 15.2721 113.895 15.7188C114.314 16.1562 114.633 16.7305 114.852 17.4414C115.079 18.1523 115.193 19.0228 115.193 20.0527V29.5H111.242V20.0527C111.242 19.3691 111.151 18.8496 110.969 18.4941C110.796 18.1296 110.54 17.8789 110.203 17.7422C109.875 17.5964 109.483 17.5234 109.027 17.5234C108.553 17.5234 108.139 17.6191 107.783 17.8105C107.428 17.9928 107.132 18.248 106.895 18.5762C106.658 18.9043 106.48 19.2871 106.361 19.7246C106.243 20.153 106.184 20.6224 106.184 21.1328Z" fill="white"/>
</svg>
